# xmcd
#
# Track frame offsets: 
#        150
#        10965
#        31190
#        46665
#        58989
#        72652
#        87641
#        103709
#        121057
#        130791
#
# Disc length: 2021 seconds
#
# Revision: 1
# Processed by: cddbd v1.5.2PL0 Copyright (c) Steve Scherf et al.
# Submitted via: ExactAudioCopy v0.99pb4
#
DISCID=8607e30a
DTITLE=Aura - Colombine
DYEAR=2007
DGENRE=Pop
TTITLE0=Glass Bone Crash
TTITLE1=Little Louie
TTITLE2=Something From Nothing
TTITLE3=Picture of the Moon
TTITLE4=You Are the Reason
TTITLE5=Song For Sophie
TTITLE6=I Will Love You Monday
TTITLE7=Clean Hands
TTITLE8=You Are for Sale
TTITLE9=Antony
EXTD=
EXTT0=
EXTT1=
EXTT2=
EXTT3=
EXTT4=
EXTT5=
EXTT6=
EXTT7=
EXTT8=
EXTT9=
PLAYORDER=
